<?xml version="1.0" encoding="UTF-8" standalone="no"?>
<!DOCTYPE svg PUBLIC "-//W3C//DTD SVG 1.1//EN"
 "http://www.w3.org/Graphics/SVG/1.1/DTD/svg11.dtd">
<!-- Generated by graphviz version 2.46.1 (20210213.1702)
 -->
<!-- Pages: 1 -->
<svg width="1474pt" height="476pt"
 viewBox="0.00 0.00 1474.18 476.00" xmlns="http://www.w3.org/2000/svg" xmlns:xlink="http://www.w3.org/1999/xlink">
<g id="graph0" class="graph" transform="scale(1 1) rotate(0) translate(4 472)">
<polygon fill="white" stroke="transparent" points="-4,4 -4,-472 1470.18,-472 1470.18,4 -4,4"/>
<!-- [root] aws_instance.back&#45;end (expand) -->
<g id="node1" class="node">
<title>[root] aws_instance.back&#45;end (expand)</title>
<polygon fill="none" stroke="black" points="517.5,-252 371.5,-252 371.5,-216 517.5,-216 517.5,-252"/>
<text text-anchor="middle" x="444.5" y="-230.3" font-family="Times New Roman,serif" font-size="14.00">aws_instance.back&#45;end</text>
</g>
<!-- [root] aws_security_group.instance&#45;security&#45;group (expand) -->
<g id="node3" class="node">
<title>[root] aws_security_group.instance&#45;security&#45;group (expand)</title>
<polygon fill="none" stroke="black" points="694.5,-180 430.5,-180 430.5,-144 694.5,-144 694.5,-180"/>
<text text-anchor="middle" x="562.5" y="-158.3" font-family="Times New Roman,serif" font-size="14.00">aws_security_group.instance&#45;security&#45;group</text>
</g>
<!-- [root] aws_instance.back&#45;end (expand)&#45;&gt;[root] aws_security_group.instance&#45;security&#45;group (expand) -->
<g id="edge1" class="edge">
<title>[root] aws_instance.back&#45;end (expand)&#45;&gt;[root] aws_security_group.instance&#45;security&#45;group (expand)</title>
<path fill="none" stroke="black" d="M473.37,-215.88C488.79,-206.72 507.98,-195.34 524.6,-185.48"/>
<polygon fill="black" stroke="black" points="526.71,-188.3 533.52,-180.19 523.14,-182.28 526.71,-188.3"/>
</g>
<!-- [root] var.AMIS -->
<g id="node9" class="node">
<title>[root] var.AMIS</title>
<polygon fill="none" stroke="black" points="778.5,-180 712.5,-180 712.5,-144 784.5,-144 784.5,-174 778.5,-180"/>
<polyline fill="none" stroke="black" points="778.5,-180 778.5,-174 "/>
<polyline fill="none" stroke="black" points="784.5,-174 778.5,-174 "/>
<text text-anchor="middle" x="748.5" y="-158.3" font-family="Times New Roman,serif" font-size="14.00">var.AMIS</text>
</g>
<!-- [root] aws_instance.back&#45;end (expand)&#45;&gt;[root] var.AMIS -->
<g id="edge2" class="edge">
<title>[root] aws_instance.back&#45;end (expand)&#45;&gt;[root] var.AMIS</title>
<path fill="none" stroke="black" d="M517.54,-221.26C567.39,-212.51 634.97,-199.2 702.38,-180.1"/>
<polygon fill="black" stroke="black" points="703.68,-183.36 712.32,-177.24 701.74,-176.64 703.68,-183.36"/>
</g>
<!-- [root] var.project_tags_back_end -->
<g id="node17" class="node">
<title>[root] var.project_tags_back_end</title>
<polygon fill="none" stroke="black" points="406,-180 243,-180 243,-144 412,-144 412,-174 406,-180"/>
<polyline fill="none" stroke="black" points="406,-180 406,-174 "/>
<polyline fill="none" stroke="black" points="412,-174 406,-174 "/>
<text text-anchor="middle" x="327.5" y="-158.3" font-family="Times New Roman,serif" font-size="14.00">var.project_tags_back_end</text>
</g>
<!-- [root] aws_instance.back&#45;end (expand)&#45;&gt;[root] var.project_tags_back_end -->
<g id="edge3" class="edge">
<title>[root] aws_instance.back&#45;end (expand)&#45;&gt;[root] var.project_tags_back_end</title>
<path fill="none" stroke="black" d="M415.88,-215.88C400.58,-206.72 381.56,-195.34 365.08,-185.48"/>
<polygon fill="black" stroke="black" points="366.61,-182.32 356.23,-180.19 363.02,-188.33 366.61,-182.32"/>
</g>
<!-- [root] aws_instance.front&#45;end (expand) -->
<g id="node2" class="node">
<title>[root] aws_instance.front&#45;end (expand)</title>
<polygon fill="none" stroke="black" points="890.5,-252 744.5,-252 744.5,-216 890.5,-216 890.5,-252"/>
<text text-anchor="middle" x="817.5" y="-230.3" font-family="Times New Roman,serif" font-size="14.00">aws_instance.front&#45;end</text>
</g>
<!-- [root] aws_instance.front&#45;end (expand)&#45;&gt;[root] aws_security_group.instance&#45;security&#45;group (expand) -->
<g id="edge4" class="edge">
<title>[root] aws_instance.front&#45;end (expand)&#45;&gt;[root] aws_security_group.instance&#45;security&#45;group (expand)</title>
<path fill="none" stroke="black" d="M755.45,-215.97C719.04,-205.97 672.87,-193.3 634.82,-182.85"/>
<polygon fill="black" stroke="black" points="635.4,-179.38 624.83,-180.11 633.55,-186.13 635.4,-179.38"/>
</g>
<!-- [root] aws_instance.front&#45;end (expand)&#45;&gt;[root] var.AMIS -->
<g id="edge5" class="edge">
<title>[root] aws_instance.front&#45;end (expand)&#45;&gt;[root] var.AMIS</title>
<path fill="none" stroke="black" d="M800.44,-215.7C792,-207.14 781.68,-196.66 772.46,-187.3"/>
<polygon fill="black" stroke="black" points="774.87,-184.77 765.36,-180.1 769.89,-189.68 774.87,-184.77"/>
</g>
<!-- [root] var.project_tags_front_end -->
<g id="node18" class="node">
<title>[root] var.project_tags_front_end</title>
<polygon fill="none" stroke="black" points="966,-180 803,-180 803,-144 972,-144 972,-174 966,-180"/>
<polyline fill="none" stroke="black" points="966,-180 966,-174 "/>
<polyline fill="none" stroke="black" points="972,-174 966,-174 "/>
<text text-anchor="middle" x="887.5" y="-158.3" font-family="Times New Roman,serif" font-size="14.00">var.project_tags_front_end</text>
</g>
<!-- [root] aws_instance.front&#45;end (expand)&#45;&gt;[root] var.project_tags_front_end -->
<g id="edge6" class="edge">
<title>[root] aws_instance.front&#45;end (expand)&#45;&gt;[root] var.project_tags_front_end</title>
<path fill="none" stroke="black" d="M834.8,-215.7C843.36,-207.14 853.84,-196.66 863.2,-187.3"/>
<polygon fill="black" stroke="black" points="865.8,-189.65 870.4,-180.1 860.85,-184.7 865.8,-189.65"/>
</g>
<!-- [root] provider[&quot;registry.terraform.io/hashicorp/aws&quot;] -->
<g id="node8" class="node">
<title>[root] provider[&quot;registry.terraform.io/hashicorp/aws&quot;]</title>
<polygon fill="none" stroke="black" points="395.5,-108 138.27,-90 395.5,-72 652.73,-90 395.5,-108"/>
<text text-anchor="middle" x="395.5" y="-86.3" font-family="Times New Roman,serif" font-size="14.00">provider[&quot;registry.terraform.io/hashicorp/aws&quot;]</text>
</g>
<!-- [root] aws_security_group.instance&#45;security&#45;group (expand)&#45;&gt;[root] provider[&quot;registry.terraform.io/hashicorp/aws&quot;] -->
<g id="edge7" class="edge">
<title>[root] aws_security_group.instance&#45;security&#45;group (expand)&#45;&gt;[root] provider[&quot;registry.terraform.io/hashicorp/aws&quot;]</title>
<path fill="none" stroke="black" d="M521.65,-143.88C496.82,-133.47 465.11,-120.18 439.69,-109.52"/>
<polygon fill="black" stroke="black" points="440.86,-106.22 430.29,-105.58 438.16,-112.68 440.86,-106.22"/>
</g>
<!-- [root] var.portsAndCidr -->
<g id="node16" class="node">
<title>[root] var.portsAndCidr</title>
<polygon fill="none" stroke="black" points="780.5,-108 670.5,-108 670.5,-72 786.5,-72 786.5,-102 780.5,-108"/>
<polyline fill="none" stroke="black" points="780.5,-108 780.5,-102 "/>
<polyline fill="none" stroke="black" points="786.5,-102 780.5,-102 "/>
<text text-anchor="middle" x="728.5" y="-86.3" font-family="Times New Roman,serif" font-size="14.00">var.portsAndCidr</text>
</g>
<!-- [root] aws_security_group.instance&#45;security&#45;group (expand)&#45;&gt;[root] var.portsAndCidr -->
<g id="edge8" class="edge">
<title>[root] aws_security_group.instance&#45;security&#45;group (expand)&#45;&gt;[root] var.portsAndCidr</title>
<path fill="none" stroke="black" d="M603.11,-143.88C625.9,-134.26 654.53,-122.19 678.67,-112.01"/>
<polygon fill="black" stroke="black" points="680.17,-115.18 688.02,-108.07 677.45,-108.73 680.17,-115.18"/>
</g>
<!-- [root] output.back&#45;end&#45;arn -->
<g id="node4" class="node">
<title>[root] output.back&#45;end&#45;arn</title>
<polygon fill="none" stroke="black" points="307.5,-324 183.5,-324 183.5,-288 313.5,-288 313.5,-318 307.5,-324"/>
<polyline fill="none" stroke="black" points="307.5,-324 307.5,-318 "/>
<polyline fill="none" stroke="black" points="313.5,-318 307.5,-318 "/>
<text text-anchor="middle" x="248.5" y="-302.3" font-family="Times New Roman,serif" font-size="14.00">output.back&#45;end&#45;arn</text>
</g>
<!-- [root] output.back&#45;end&#45;arn&#45;&gt;[root] aws_instance.back&#45;end (expand) -->
<g id="edge16" class="edge">
<title>[root] output.back&#45;end&#45;arn&#45;&gt;[root] aws_instance.back&#45;end (expand)</title>
<path fill="none" stroke="black" d="M296.2,-287.97C323.58,-278.19 358.16,-265.84 387.03,-255.52"/>
<polygon fill="black" stroke="black" points="388.35,-258.77 396.59,-252.11 386,-252.18 388.35,-258.77"/>
</g>
<!-- [root] output.back&#45;end&#45;public_ip -->
<g id="node5" class="node">
<title>[root] output.back&#45;end&#45;public_ip</title>
<polygon fill="none" stroke="black" points="159,-324 0,-324 0,-288 165,-288 165,-318 159,-324"/>
<polyline fill="none" stroke="black" points="159,-324 159,-318 "/>
<polyline fill="none" stroke="black" points="165,-318 159,-318 "/>
<text text-anchor="middle" x="82.5" y="-302.3" font-family="Times New Roman,serif" font-size="14.00">output.back&#45;end&#45;public_ip</text>
</g>
<!-- [root] output.back&#45;end&#45;public_ip&#45;&gt;[root] aws_instance.back&#45;end (expand) -->
<g id="edge17" class="edge">
<title>[root] output.back&#45;end&#45;public_ip&#45;&gt;[root] aws_instance.back&#45;end (expand)</title>
<path fill="none" stroke="black" d="M165.1,-289.03C223.88,-277.66 302.56,-262.45 361.45,-251.06"/>
<polygon fill="black" stroke="black" points="362.31,-254.46 371.46,-249.12 360.98,-247.59 362.31,-254.46"/>
</g>
<!-- [root] output.front&#45;end&#45;arn -->
<g id="node6" class="node">
<title>[root] output.front&#45;end&#45;arn</title>
<polygon fill="none" stroke="black" points="793.5,-324 669.5,-324 669.5,-288 799.5,-288 799.5,-318 793.5,-324"/>
<polyline fill="none" stroke="black" points="793.5,-324 793.5,-318 "/>
<polyline fill="none" stroke="black" points="799.5,-318 793.5,-318 "/>
<text text-anchor="middle" x="734.5" y="-302.3" font-family="Times New Roman,serif" font-size="14.00">output.front&#45;end&#45;arn</text>
</g>
<!-- [root] output.front&#45;end&#45;arn&#45;&gt;[root] aws_instance.front&#45;end (expand) -->
<g id="edge18" class="edge">
<title>[root] output.front&#45;end&#45;arn&#45;&gt;[root] aws_instance.front&#45;end (expand)</title>
<path fill="none" stroke="black" d="M755.02,-287.7C765.37,-278.97 778.09,-268.24 789.34,-258.75"/>
<polygon fill="black" stroke="black" points="791.83,-261.23 797.22,-252.1 787.32,-255.88 791.83,-261.23"/>
</g>
<!-- [root] output.front&#45;end&#45;public_ip -->
<g id="node7" class="node">
<title>[root] output.front&#45;end&#45;public_ip</title>
<polygon fill="none" stroke="black" points="977,-324 818,-324 818,-288 983,-288 983,-318 977,-324"/>
<polyline fill="none" stroke="black" points="977,-324 977,-318 "/>
<polyline fill="none" stroke="black" points="983,-318 977,-318 "/>
<text text-anchor="middle" x="900.5" y="-302.3" font-family="Times New Roman,serif" font-size="14.00">output.front&#45;end&#45;public_ip</text>
</g>
<!-- [root] output.front&#45;end&#45;public_ip&#45;&gt;[root] aws_instance.front&#45;end (expand) -->
<g id="edge19" class="edge">
<title>[root] output.front&#45;end&#45;public_ip&#45;&gt;[root] aws_instance.front&#45;end (expand)</title>
<path fill="none" stroke="black" d="M879.98,-287.7C869.63,-278.97 856.91,-268.24 845.66,-258.75"/>
<polygon fill="black" stroke="black" points="847.68,-255.88 837.78,-252.1 843.17,-261.23 847.68,-255.88"/>
</g>
<!-- [root] var.AWS_ACCESS_KEY -->
<g id="node10" class="node">
<title>[root] var.AWS_ACCESS_KEY</title>
<polygon fill="none" stroke="black" points="306.5,-36 146.5,-36 146.5,0 312.5,0 312.5,-30 306.5,-36"/>
<polyline fill="none" stroke="black" points="306.5,-36 306.5,-30 "/>
<polyline fill="none" stroke="black" points="312.5,-30 306.5,-30 "/>
<text text-anchor="middle" x="229.5" y="-14.3" font-family="Times New Roman,serif" font-size="14.00">var.AWS_ACCESS_KEY</text>
</g>
<!-- [root] provider[&quot;registry.terraform.io/hashicorp/aws&quot;]&#45;&gt;[root] var.AWS_ACCESS_KEY -->
<g id="edge22" class="edge">
<title>[root] provider[&quot;registry.terraform.io/hashicorp/aws&quot;]&#45;&gt;[root] var.AWS_ACCESS_KEY</title>
<path fill="none" stroke="black" d="M360.7,-74.33C337.16,-64.4 305.71,-51.14 279.5,-40.08"/>
<polygon fill="black" stroke="black" points="280.68,-36.78 270.1,-36.12 277.96,-43.23 280.68,-36.78"/>
</g>
<!-- [root] var.AWS_REGION -->
<g id="node11" class="node">
<title>[root] var.AWS_REGION</title>
<polygon fill="none" stroke="black" points="454.5,-36 330.5,-36 330.5,0 460.5,0 460.5,-30 454.5,-36"/>
<polyline fill="none" stroke="black" points="454.5,-36 454.5,-30 "/>
<polyline fill="none" stroke="black" points="460.5,-30 454.5,-30 "/>
<text text-anchor="middle" x="395.5" y="-14.3" font-family="Times New Roman,serif" font-size="14.00">var.AWS_REGION</text>
</g>
<!-- [root] provider[&quot;registry.terraform.io/hashicorp/aws&quot;]&#45;&gt;[root] var.AWS_REGION -->
<g id="edge23" class="edge">
<title>[root] provider[&quot;registry.terraform.io/hashicorp/aws&quot;]&#45;&gt;[root] var.AWS_REGION</title>
<path fill="none" stroke="black" d="M395.5,-71.7C395.5,-63.98 395.5,-54.71 395.5,-46.11"/>
<polygon fill="black" stroke="black" points="399,-46.1 395.5,-36.1 392,-46.1 399,-46.1"/>
</g>
<!-- [root] var.AWS_SECRET_KEY -->
<g id="node12" class="node">
<title>[root] var.AWS_SECRET_KEY</title>
<polygon fill="none" stroke="black" points="638,-36 479,-36 479,0 644,0 644,-30 638,-36"/>
<polyline fill="none" stroke="black" points="638,-36 638,-30 "/>
<polyline fill="none" stroke="black" points="644,-30 638,-30 "/>
<text text-anchor="middle" x="561.5" y="-14.3" font-family="Times New Roman,serif" font-size="14.00">var.AWS_SECRET_KEY</text>
</g>
<!-- [root] provider[&quot;registry.terraform.io/hashicorp/aws&quot;]&#45;&gt;[root] var.AWS_SECRET_KEY -->
<g id="edge24" class="edge">
<title>[root] provider[&quot;registry.terraform.io/hashicorp/aws&quot;]&#45;&gt;[root] var.AWS_SECRET_KEY</title>
<path fill="none" stroke="black" d="M430.3,-74.33C453.84,-64.4 485.29,-51.14 511.5,-40.08"/>
<polygon fill="black" stroke="black" points="513.04,-43.23 520.9,-36.12 510.32,-36.78 513.04,-43.23"/>
</g>
<!-- [root] var.ENV -->
<g id="node13" class="node">
<title>[root] var.ENV</title>
<polygon fill="none" stroke="black" points="391,-324 332,-324 332,-288 397,-288 397,-318 391,-324"/>
<polyline fill="none" stroke="black" points="391,-324 391,-318 "/>
<polyline fill="none" stroke="black" points="397,-318 391,-318 "/>
<text text-anchor="middle" x="364.5" y="-302.3" font-family="Times New Roman,serif" font-size="14.00">var.ENV</text>
</g>
<!-- [root] var.RDS_PASSWORD -->
<g id="node14" class="node">
<title>[root] var.RDS_PASSWORD</title>
<polygon fill="none" stroke="black" points="560,-324 415,-324 415,-288 566,-288 566,-318 560,-324"/>
<polyline fill="none" stroke="black" points="560,-324 560,-318 "/>
<polyline fill="none" stroke="black" points="566,-318 560,-318 "/>
<text text-anchor="middle" x="490.5" y="-302.3" font-family="Times New Roman,serif" font-size="14.00">var.RDS_PASSWORD</text>
</g>
<!-- [root] var.ports -->
<g id="node15" class="node">
<title>[root] var.ports</title>
<polygon fill="none" stroke="black" points="645,-324 584,-324 584,-288 651,-288 651,-318 645,-324"/>
<polyline fill="none" stroke="black" points="645,-324 645,-318 "/>
<polyline fill="none" stroke="black" points="651,-318 645,-318 "/>
<text text-anchor="middle" x="617.5" y="-302.3" font-family="Times New Roman,serif" font-size="14.00">var.ports</text>
</g>
<!-- [root] meta.count&#45;boundary (EachMode fixup) -->
<g id="node19" class="node">
<title>[root] meta.count&#45;boundary (EachMode fixup)</title>
<ellipse fill="none" stroke="black" cx="553.5" cy="-378" rx="180.87" ry="18"/>
<text text-anchor="middle" x="553.5" y="-374.3" font-family="Times New Roman,serif" font-size="14.00">[root] meta.count&#45;boundary (EachMode fixup)</text>
</g>
<!-- [root] meta.count&#45;boundary (EachMode fixup)&#45;&gt;[root] output.back&#45;end&#45;arn -->
<g id="edge9" class="edge">
<title>[root] meta.count&#45;boundary (EachMode fixup)&#45;&gt;[root] output.back&#45;end&#45;arn</title>
<path fill="none" stroke="black" d="M485.02,-361.29C441.48,-351.31 383.63,-338.03 323.87,-324.31"/>
<polygon fill="black" stroke="black" points="324.4,-320.84 313.87,-322.02 322.83,-327.67 324.4,-320.84"/>
</g>
<!-- [root] meta.count&#45;boundary (EachMode fixup)&#45;&gt;[root] output.back&#45;end&#45;public_ip -->
<g id="edge10" class="edge">
<title>[root] meta.count&#45;boundary (EachMode fixup)&#45;&gt;[root] output.back&#45;end&#45;public_ip</title>
<path fill="none" stroke="black" d="M447.12,-363.39C373.58,-353.68 273.24,-339.85 175.3,-324.09"/>
<polygon fill="black" stroke="black" points="175.65,-320.6 165.22,-322.46 174.54,-327.51 175.65,-320.6"/>
</g>
<!-- [root] meta.count&#45;boundary (EachMode fixup)&#45;&gt;[root] output.front&#45;end&#45;arn -->
<g id="edge11" class="edge">
<title>[root] meta.count&#45;boundary (EachMode fixup)&#45;&gt;[root] output.front&#45;end&#45;arn</title>
<path fill="none" stroke="black" d="M596.39,-360.41C621.63,-350.65 653.76,-338.23 680.68,-327.81"/>
<polygon fill="black" stroke="black" points="682.28,-330.95 690.34,-324.08 679.75,-324.42 682.28,-330.95"/>
</g>
<!-- [root] meta.count&#45;boundary (EachMode fixup)&#45;&gt;[root] output.front&#45;end&#45;public_ip -->
<g id="edge12" class="edge">
<title>[root] meta.count&#45;boundary (EachMode fixup)&#45;&gt;[root] output.front&#45;end&#45;public_ip</title>
<path fill="none" stroke="black" d="M629.65,-361.64C682.16,-351.05 752.26,-336.91 807.98,-325.66"/>
<polygon fill="black" stroke="black" points="808.75,-329.08 817.86,-323.67 807.36,-322.22 808.75,-329.08"/>
</g>
<!-- [root] meta.count&#45;boundary (EachMode fixup)&#45;&gt;[root] var.ENV -->
<g id="edge13" class="edge">
<title>[root] meta.count&#45;boundary (EachMode fixup)&#45;&gt;[root] var.ENV</title>
<path fill="none" stroke="black" d="M505.62,-360.53C478.81,-351.15 444.58,-338.92 406.8,-324.43"/>
<polygon fill="black" stroke="black" points="407.71,-321.03 397.12,-320.69 405.19,-327.56 407.71,-321.03"/>
</g>
<!-- [root] meta.count&#45;boundary (EachMode fixup)&#45;&gt;[root] var.RDS_PASSWORD -->
<g id="edge14" class="edge">
<title>[root] meta.count&#45;boundary (EachMode fixup)&#45;&gt;[root] var.RDS_PASSWORD</title>
<path fill="none" stroke="black" d="M538.25,-360.05C530.62,-351.58 521.25,-341.17 512.83,-331.82"/>
<polygon fill="black" stroke="black" points="515.34,-329.37 506.05,-324.28 510.14,-334.05 515.34,-329.37"/>
</g>
<!-- [root] meta.count&#45;boundary (EachMode fixup)&#45;&gt;[root] var.ports -->
<g id="edge15" class="edge">
<title>[root] meta.count&#45;boundary (EachMode fixup)&#45;&gt;[root] var.ports</title>
<path fill="none" stroke="black" d="M568.99,-360.05C576.74,-351.58 586.26,-341.17 594.81,-331.82"/>
<polygon fill="black" stroke="black" points="597.54,-334.02 601.71,-324.28 592.37,-329.29 597.54,-334.02"/>
</g>
<!-- [root] provider[&quot;registry.terraform.io/hashicorp/aws&quot;] (close) -->
<g id="node20" class="node">
<title>[root] provider[&quot;registry.terraform.io/hashicorp/aws&quot;] (close)</title>
<ellipse fill="none" stroke="black" cx="1233.5" cy="-306" rx="232.86" ry="18"/>
<text text-anchor="middle" x="1233.5" y="-302.3" font-family="Times New Roman,serif" font-size="14.00">[root] provider[&quot;registry.terraform.io/hashicorp/aws&quot;] (close)</text>
</g>
<!-- [root] provider[&quot;registry.terraform.io/hashicorp/aws&quot;] (close)&#45;&gt;[root] aws_instance.back&#45;end (expand) -->
<g id="edge20" class="edge">
<title>[root] provider[&quot;registry.terraform.io/hashicorp/aws&quot;] (close)&#45;&gt;[root] aws_instance.back&#45;end (expand)</title>
<path fill="none" stroke="black" d="M1086.94,-292C922.22,-277.38 660.51,-254.16 527.7,-242.38"/>
<polygon fill="black" stroke="black" points="527.85,-238.88 517.58,-241.48 527.24,-245.85 527.85,-238.88"/>
</g>
<!-- [root] provider[&quot;registry.terraform.io/hashicorp/aws&quot;] (close)&#45;&gt;[root] aws_instance.front&#45;end (expand) -->
<g id="edge21" class="edge">
<title>[root] provider[&quot;registry.terraform.io/hashicorp/aws&quot;] (close)&#45;&gt;[root] aws_instance.front&#45;end (expand)</title>
<path fill="none" stroke="black" d="M1141.18,-289.46C1069.2,-277.35 970.11,-260.68 900.6,-248.98"/>
<polygon fill="black" stroke="black" points="901,-245.5 890.56,-247.29 899.84,-252.4 901,-245.5"/>
</g>
<!-- [root] root -->
<g id="node21" class="node">
<title>[root] root</title>
<ellipse fill="none" stroke="black" cx="657.5" cy="-450" rx="49.29" ry="18"/>
<text text-anchor="middle" x="657.5" y="-446.3" font-family="Times New Roman,serif" font-size="14.00">[root] root</text>
</g>
<!-- [root] root&#45;&gt;[root] meta.count&#45;boundary (EachMode fixup) -->
<g id="edge25" class="edge">
<title>[root] root&#45;&gt;[root] meta.count&#45;boundary (EachMode fixup)</title>
<path fill="none" stroke="black" d="M634.93,-433.81C620.92,-424.38 602.66,-412.09 586.98,-401.53"/>
<polygon fill="black" stroke="black" points="588.82,-398.56 578.57,-395.88 584.92,-404.36 588.82,-398.56"/>
</g>
<!-- [root] root&#45;&gt;[root] provider[&quot;registry.terraform.io/hashicorp/aws&quot;] (close) -->
<g id="edge26" class="edge">
<title>[root] root&#45;&gt;[root] provider[&quot;registry.terraform.io/hashicorp/aws&quot;] (close)</title>
<path fill="none" stroke="black" d="M697.55,-439.13C792.68,-415.67 1033.54,-356.3 1157.39,-325.76"/>
<polygon fill="black" stroke="black" points="1158.31,-329.14 1167.19,-323.35 1156.64,-322.34 1158.31,-329.14"/>
</g>
</g>
</svg>
